<?xml version="1.0" encoding="UTF-8"?>
<svg version="1.1" xmlns="http://www.w3.org/2000/svg" width="512" height="512">
<path d="M0 0 C5.29700659 4.65208637 10.33225614 9.56359781 15.30126953 14.5625 C15.85073242 15.09488281 16.40019531 15.62726562 16.96630859 16.17578125 C37.77138723 36.49119466 50.74825235 64.54073175 57.30126953 92.5625 C57.62095703 93.83738281 57.94064453 95.11226562 58.27001953 96.42578125 C66.5609615 133.54177951 58.97613066 175.84290859 40.30126953 208.5625 C39.79829346 209.44518555 39.79829346 209.44518555 39.28515625 210.34570312 C35.49913596 216.89822123 31.44730168 222.96713293 26.45361328 228.66015625 C25.13915138 230.45687406 25.13915138 230.45687406 25.30908203 232.421875 C26.77985792 235.59504502 29.00779519 238.09188993 31.23876953 240.75 C43.04214119 255.33998279 50.62783352 271.35527147 56.05126953 289.25 C56.25018799 289.90226562 56.44910645 290.55453125 56.65405273 291.2265625 C60.08033961 303.10318111 60.70923303 314.79068177 60.67626953 327.0625 C60.67539337 327.85896942 60.67451721 328.65543884 60.6736145 329.4760437 C60.62863879 341.87766958 59.98977177 353.63643102 56.30126953 365.5625 C56.06520996 366.33722656 55.82915039 367.11195313 55.5859375 367.91015625 C44.98036644 401.55258671 23.28508033 429.09387852 -6.69873047 447.5625 C-7.276875 447.92230957 -7.85501953 448.28211914 -8.45068359 448.65283203 C-37.48959547 466.38123776 -75.63892085 471.78151249 -108.66015625 464.06298828 C-109.33288574 463.89782715 -110.00561523 463.73266602 -110.69873047 463.5625 C-111.40884277 463.39089355 -112.11895508 463.21928711 -112.85058594 463.04248047 C-122.22243779 460.70213184 -130.56835413 457.46872261 -139.03857422 452.8203125 C-147.67510691 449.8523685 -157.86099453 453.47893333 -166.59748459 455.29153824 C-168.89187519 455.76707862 -171.18759824 456.23562639 -173.48379517 456.70236206 C-180.00423492 458.02892026 -186.5222397 459.36721887 -193.0390625 460.71142578 C-197.04319562 461.5368497 -201.04897291 462.35385459 -205.05586624 463.16576767 C-206.5771769 463.47586226 -208.09781724 463.78926466 -209.61774826 464.1060524 C-211.73615635 464.54748714 -213.85647915 464.97825588 -215.97753906 465.40673828 C-217.18203705 465.65465118 -218.38653503 465.90256409 -219.62753296 466.1579895 C-222.43684767 466.52800716 -224.07102538 466.51423163 -226.69873047 465.5625 C-222.67889017 459.46079351 -218.65866589 453.35934013 -214.63818359 447.25805664 C-213.27253673 445.1855228 -211.90697547 443.11293255 -210.54150391 441.0402832 C-208.57070445 438.0488398 -206.59958996 435.05760419 -204.62841797 432.06640625 C-204.02504608 431.15041153 -203.42167419 430.23441681 -202.80001831 429.29066467 C-201.92979538 427.97031471 -201.92979538 427.97031471 -201.04199219 426.62329102 C-200.48848083 425.77719269 -199.93496948 424.93109436 -199.36468506 424.05935669 C-198.23750926 422.36999706 -197.08097825 420.69991935 -195.89849854 419.04879761 C-195.33902527 418.25917633 -194.779552 417.46955505 -194.203125 416.65600586 C-193.69717804 415.96188095 -193.19123108 415.26775604 -192.66995239 414.55259705 C-191.50115304 412.61297508 -191.50115304 412.61297508 -191.94650269 410.46705627 C-193.0254038 407.7353998 -194.58643819 405.45362734 -196.19873047 403 C-203.74369449 391.12655456 -209.83490645 378.09939395 -213.69873047 364.5625 C-214.26978516 365.0471875 -214.84083984 365.531875 -215.42919922 366.03125 C-243.94805577 389.60804715 -280.62090586 400.43474732 -317.39257812 397.33544922 C-349.25459865 394.06917447 -377.21296118 381.26284495 -400.69873047 359.5625 C-401.59205078 358.75167969 -402.48537109 357.94085938 -403.40576172 357.10546875 C-427.86678722 333.87712485 -442.92280749 298.87951155 -443.91748047 265.32421875 C-444.68243689 224.51884511 -431.76163169 188.87719767 -403.55908203 159.08813477 C-378.77673916 133.63368693 -343.55003755 118.82903821 -308.09863281 118.32202148 C-295.11363971 118.2764396 -282.3100631 119.29973542 -269.69873047 122.5625 C-269.71613281 121.96969238 -269.73353516 121.37688477 -269.75146484 120.76611328 C-270.16150741 95.69005765 -261.89853061 70.26071596 -249.69873047 48.5625 C-249.36292969 47.94648926 -249.02712891 47.33047852 -248.68115234 46.69580078 C-227.841984 8.64553562 -191.57435847 -18.61836717 -150.26123047 -30.75 C-99.141769 -44.86061496 -40.9465389 -34.64978744 0 0 Z " fill="#EFC419" transform="translate(451.69873046875,41.4375)"/>
<path d="M0 0 C4.19596357 1.55153071 6.47555003 4.63205016 9.125 8.0625 C9.60219482 8.67810791 10.07938965 9.29371582 10.57104492 9.92797852 C21.37769484 24.20431013 28.57224985 39.60341657 33.75 56.6875 C33.94891846 57.33976562 34.14783691 57.99203125 34.3527832 58.6640625 C37.77907008 70.54068111 38.4079635 82.22818177 38.375 94.5 C38.37412384 95.29646942 38.37324768 96.09293884 38.37234497 96.9135437 C38.32736925 109.31516958 37.68850224 121.07393102 34 133 C33.76394043 133.77472656 33.52788086 134.54945313 33.28466797 135.34765625 C22.6790969 168.99008671 0.9838108 196.53137852 -29 215 C-29.57814453 215.35980957 -30.15628906 215.71961914 -30.75195312 216.09033203 C-59.790865 233.81873776 -97.94019038 239.21901249 -130.96142578 231.50048828 C-131.63415527 231.33532715 -132.30688477 231.17016602 -133 231 C-134.06516846 230.74259033 -134.06516846 230.74259033 -135.15185547 230.47998047 C-144.52370732 228.13963184 -152.86962366 224.90622261 -161.33984375 220.2578125 C-169.97637644 217.2898685 -180.16226406 220.91643333 -188.89875412 222.72903824 C-191.19314472 223.20457862 -193.48886777 223.67312639 -195.7850647 224.13986206 C-202.30550445 225.46642026 -208.82350923 226.80471887 -215.34033203 228.14892578 C-219.34446515 228.9743497 -223.35024244 229.79135459 -227.35713577 230.60326767 C-228.87844643 230.91336226 -230.39908677 231.22676466 -231.91901779 231.5435524 C-234.03742588 231.98498714 -236.15774868 232.41575588 -238.27880859 232.84423828 C-239.48330658 233.09215118 -240.68780457 233.34006409 -241.92880249 233.5954895 C-244.73811721 233.96550716 -246.37229492 233.95173163 -249 233 C-244.9801597 226.89829351 -240.95993543 220.79684013 -236.93945312 214.69555664 C-235.57380626 212.6230228 -234.208245 210.55043255 -232.84277344 208.4777832 C-230.87197398 205.4863398 -228.90085949 202.49510419 -226.9296875 199.50390625 C-226.32631561 198.58791153 -225.72294373 197.67191681 -225.10128784 196.72816467 C-224.52113922 195.84793137 -223.9409906 194.96769806 -223.34326172 194.06079102 C-222.78975037 193.21469269 -222.23623901 192.36859436 -221.66595459 191.49685669 C-220.53877879 189.80749706 -219.38224778 188.13741935 -218.19976807 186.48629761 C-217.6402948 185.69667633 -217.08082153 184.90705505 -216.50439453 184.09350586 C-215.99844757 183.39938095 -215.49250061 182.70525604 -214.97122192 181.99009705 C-213.80242257 180.05047508 -213.80242257 180.05047508 -214.24777222 177.90455627 C-215.32667334 175.1728998 -216.88770772 172.89112734 -218.5 170.4375 C-222.02603478 164.89902163 -225.00096516 159.18087222 -227.8125 153.25 C-228.18503906 152.47068115 -228.55757812 151.6913623 -228.94140625 150.88842773 C-243.47548322 119.74350691 -243.97436646 81.49713217 -232.82128906 49.19873047 C-230.2489051 42.31202121 -227.13248622 35.64584546 -224 29 C-221.30954275 30.30888117 -218.74182665 31.7220987 -216.19140625 33.28515625 C-178.87959882 55.79399847 -135.18425835 65.88712416 -92 56 C-56.30835471 47.13640528 -23.23383649 29.04229561 0 0 Z " fill="#3C97D2" transform="translate(474,274)"/>
<path d="M0 0 C9.54038183 4.10998906 15.11767417 12.43750076 18.9375 21.875 C22.82782108 33.17925335 23.4483445 43.45760944 23.1875 55.3125 C23.16736862 56.93031599 23.14912979 58.54815667 23.1328125 60.16601562 C23.08942332 64.06963827 23.02078038 67.97203311 22.9375 71.875 C23.83428467 71.86611755 24.73106934 71.85723511 25.6550293 71.8480835 C34.12898345 71.76775339 42.6028087 71.70694219 51.07705688 71.66775131 C55.43321041 71.64692508 59.78904787 71.61869901 64.14501953 71.57324219 C68.35310957 71.52960613 72.56089663 71.5058256 76.76919556 71.49549103 C78.37029791 71.48813137 79.9713847 71.4737598 81.57235718 71.45207977 C97.14467324 71.24969415 97.14467324 71.24969415 103.9375 75.875 C105.77734375 77.69140625 105.77734375 77.69140625 106.875 79.4375 C107.44541016 80.30568359 107.44541016 80.30568359 108.02734375 81.19140625 C110.16419556 85.14412355 110.29967622 88.45645013 109.9375 92.875 C108.14537313 98.0955435 105.73513371 101.94961359 100.9375 104.875 C98.125 105.625 98.125 105.625 95.9375 105.875 C95.9375 106.535 95.9375 107.195 95.9375 107.875 C96.63875 107.936875 97.34 107.99875 98.0625 108.0625 C103.07828839 109.48000541 106.00650412 112.47850618 108.8125 116.6875 C110.77632948 122.25168353 110.70852514 126.72154375 108.375 132.0625 C105.6522895 136.92516543 101.98645668 139.85512132 96.70703125 141.62109375 C94.80073499 142.11032022 92.86991731 142.50207736 90.9375 142.875 C92.29875 143.6484375 92.29875 143.6484375 93.6875 144.4375 C97.27223741 146.86696659 99.50450379 149.78532544 100.9375 153.875 C102.07661575 160.33773834 100.6110771 165.5106043 96.9375 170.875 C92.69022249 175.76580441 87.05761723 176.06041347 80.9375 176.875 C81.845 177.431875 82.7525 177.98875 83.6875 178.5625 C87.36153253 181.17671545 89.91673839 183.83347678 91.9375 187.875 C92.49424965 193.82793853 92.47891118 198.84848091 88.9375 203.875 C84.37748509 208.45657526 80.94684064 210.98411018 74.31614685 211.02890015 C73.36726089 211.03750061 72.41837494 211.04610107 71.44073486 211.05496216 C70.40124695 211.05922211 69.36175903 211.06348206 68.29077148 211.06787109 C67.19448929 211.07604858 66.09820709 211.08422607 64.96870422 211.09265137 C61.33200629 211.11751046 57.69534748 211.13402511 54.05859375 211.1484375 C52.19487468 211.15642302 52.19487468 211.15642302 50.29350471 211.16456985 C45.06833327 211.18580278 39.84316768 211.20493087 34.61796474 211.21619225 C27.14843326 211.23239969 19.67942456 211.26549793 12.2100901 211.32259309 C6.31281123 211.36612083 0.4156475 211.38195353 -5.48179436 211.38832474 C-7.98275404 211.39502963 -10.48370635 211.41023164 -12.98456001 211.43421555 C-16.49344302 211.4659397 -20.00102017 211.4658918 -23.51000977 211.45849609 C-24.53532806 211.47490143 -25.56064636 211.49130676 -26.61703491 211.50820923 C-34.95484909 211.43660466 -41.44138149 209.03888003 -47.75390625 203.5234375 C-48.37136719 202.77320313 -48.98882812 202.02296875 -49.625 201.25 C-50.26566406 200.49460938 -50.90632813 199.73921875 -51.56640625 198.9609375 C-53.0625 196.875 -53.0625 196.875 -54.0625 193.875 C-54.28164063 194.53886719 -54.50078125 195.20273438 -54.7265625 195.88671875 C-57.22467853 202.84285486 -59.51746146 206.24613965 -65.97612 209.98184204 C-68.29335456 210.97382648 -69.93267779 211.14005074 -72.44458008 211.16552734 C-73.3025972 211.17828705 -74.16061432 211.19104675 -75.04463196 211.20419312 C-75.96447372 211.20641876 -76.88431549 211.20864441 -77.83203125 211.2109375 C-78.78639572 211.2175943 -79.74076019 211.2242511 -80.7240448 211.23110962 C-82.74219844 211.24122733 -84.76038548 211.24592691 -86.77856445 211.24560547 C-89.85359429 211.24996962 -92.92717799 211.28627377 -96.00195312 211.32421875 C-97.96614095 211.33008902 -99.93033556 211.33405701 -101.89453125 211.3359375 C-102.80830032 211.35030853 -103.7220694 211.36467957 -104.66352844 211.37948608 C-110.65971305 211.33695329 -114.14318638 210.35304454 -119.0625 206.875 C-124.23919588 201.27857202 -125.36253429 197.09045833 -125.36889648 189.56152344 C-125.37722 188.72522903 -125.38554352 187.88893463 -125.39411926 187.02729797 C-125.41821068 184.26294289 -125.42699119 181.49882393 -125.43359375 178.734375 C-125.44256215 176.80869476 -125.45168403 174.88301524 -125.46095276 172.95733643 C-125.47744397 168.91896879 -125.48514287 164.88068406 -125.48803711 160.84228516 C-125.49341489 155.67951368 -125.53106943 150.51752686 -125.57678127 145.35497665 C-125.60659786 141.37598869 -125.6137617 137.3971884 -125.61476326 133.41809845 C-125.61895796 131.51557072 -125.63136206 129.61304204 -125.65228081 127.71062469 C-125.6792853 125.04185709 -125.67434291 122.37489138 -125.66186523 119.70605469 C-125.67669952 118.92758682 -125.69153381 118.14911896 -125.70681763 117.34706116 C-125.61700249 110.56516158 -122.99140251 105.75617963 -118.18017578 101.02334595 C-112.76617899 97.68932921 -108.22886105 97.13987544 -101.9375 97.2109375 C-100.51800049 97.20376205 -100.51800049 97.20376205 -99.06982422 97.19644165 C-97.07973558 97.19305673 -95.08959026 97.20215998 -93.09960938 97.22314453 C-90.07034171 97.24993066 -87.04477876 97.22334898 -84.015625 97.19140625 C-82.07290857 97.1947106 -80.13019442 97.20111735 -78.1875 97.2109375 C-77.29144043 97.20081635 -76.39538086 97.19069519 -75.47216797 97.18026733 C-69.21238599 97.29572744 -64.87008211 98.78434589 -60.0625 102.875 C-58.44906916 104.81477284 -57.29972132 106.6583118 -56.0625 108.875 C-55.5675 107.39 -55.5675 107.39 -55.0625 105.875 C-53.2421875 104.515625 -53.2421875 104.515625 -50.9375 103.125 C-34.29168297 92.30917594 -29.46896975 73.1985598 -25.32470703 54.7265625 C-22.88694208 42.93977143 -22.29989096 31.07249692 -21.92089844 19.06982422 C-21.89211609 18.37464188 -21.86333374 17.67945953 -21.8336792 16.96321106 C-21.75490995 15.06003738 -21.69518028 13.15610297 -21.63671875 11.25219727 C-20.80360605 6.35234696 -18.60303137 3.15877614 -14.8125 0 C-9.75711449 -2.06811225 -5.08009719 -1.65398513 0 0 Z " fill="#FEFEFE" transform="translate(359.0625,45.125)"/>
<path d="M0 0 C0.04487549 0.62753174 0.08975098 1.25506348 0.13598633 1.90161133 C1.58346598 21.69224537 3.65667011 40.15842608 10 59 C10.69274815 61.32690876 11.3492319 63.66083357 12 66 C11.21238281 66.08636719 10.42476562 66.17273438 9.61328125 66.26171875 C-8.15787108 68.55409225 -21.9177022 75.84372017 -34 89 C-35.02083333 88.125 -36.04166667 87.25 -37.0625 86.375 C-37.71476563 85.82328125 -38.36703125 85.2715625 -39.0390625 84.703125 C-40.21061865 83.68559814 -41.36075214 82.64117702 -42.4609375 81.546875 C-50.40205638 73.89987164 -62.98100265 67.7199913 -74 67 C-74.93779297 66.9386084 -74.93779297 66.9386084 -75.89453125 66.87597656 C-91.13722197 66.02051943 -103.33554896 69.41143794 -115.03515625 79.80859375 C-124.52710183 89.84293622 -129.05810203 103.38222632 -129.3125 117 C-128.63629955 140.77104674 -117.47409272 158.65236243 -102 176 C-101.41605469 176.65742188 -100.83210938 177.31484375 -100.23046875 177.9921875 C-86.49203268 192.53058314 -68.24811631 203.20332093 -51 213 C-50.29391602 213.40766602 -49.58783203 213.81533203 -48.86035156 214.23535156 C-46.83231224 215.40243968 -44.79373304 216.54816587 -42.75 217.6875 C-41.83855225 218.21452515 -41.83855225 218.21452515 -40.90869141 218.75219727 C-38.41537213 220.11171167 -36.48323217 221.0047531 -33.6171875 220.9765625 C-29.70119092 219.51536975 -26.05882962 217.65538819 -22.375 215.6875 C-21.54395752 215.245271 -20.71291504 214.80304199 -19.85668945 214.34741211 C12.49168462 196.86912513 42.55865391 173.97716733 56.7734375 138.99609375 C57.74640607 136.61944759 58.85151275 134.2969745 60 132 C62.64 133.98 65.28 135.96 68 138 C67.43268625 142.87441945 65.84370323 146.80975689 63.75 151.1875 C52.43374773 176.01447736 49.66026382 204.79585855 55.66455078 231.35009766 C55.84872559 232.16655762 56.03290039 232.98301758 56.22265625 233.82421875 C56.48187866 234.89289185 56.48187866 234.89289185 56.74633789 235.9831543 C57.03729087 238.29649648 56.78210944 239.81095778 56 242 C33.6042937 264.77853889 -3.40461601 275.09552829 -34.4375 275.375 C-71.0593353 275.07897662 -104.17490727 261.78580789 -131 237 C-131.89332031 236.18917969 -132.78664062 235.37835938 -133.70703125 234.54296875 C-158.16805675 211.31462485 -173.22407703 176.31701155 -174.21875 142.76171875 C-174.98370642 101.95634511 -162.06290122 66.31469767 -133.86035156 36.52563477 C-99.76673357 1.5073871 -47.11985436 -12.19070151 0 0 Z " fill="#FE5364" transform="translate(182,164)"/>
<path d="M0 0 C2.7894905 2.20957011 5.36870534 4.49982842 7.9140625 6.984375 C9.84512435 8.85034488 11.81839455 10.44030018 14 12 C14.55945313 11.3709375 15.11890625 10.741875 15.6953125 10.09375 C28.05779981 -3.10350333 41.97666319 -9.19215337 60 -10 C60.50789062 -8.97261719 61.01578125 -7.94523438 61.5390625 -6.88671875 C63.67347852 -2.58139205 65.83325302 1.71087277 68 6 C68.50015625 6.99644531 69.0003125 7.99289063 69.515625 9.01953125 C78.12278235 25.51658284 90.42017117 41.16579593 105.11328125 52.62109375 C107 55 107 55 106.9296875 58.421875 C98.53888725 90.71587933 69.32892733 115.11270344 41.72338867 131.42089844 C38.58853711 133.23038238 35.43304778 134.99923877 32.26318359 136.74658203 C30.04435523 137.97543476 27.84389069 139.23280254 25.64453125 140.49609375 C24.30547036 141.24879026 22.96566762 142.00016906 21.625 142.75 C21.02469971 143.09780518 20.42439941 143.44561035 19.8059082 143.80395508 C17.31246235 145.16515292 15.4400722 146.00921246 12.57421875 145.94921875 C8.94183644 144.60981222 5.5898547 142.90271122 2.1875 141.0625 C1.44266357 140.66281006 0.69782715 140.26312012 -0.06958008 139.85131836 C-33.40738281 121.72751658 -68.85998971 96.65001211 -80.32421875 58.62109375 C-81.24054031 55.06703731 -81.84706963 51.65758464 -82 48 C-82.0515625 46.95070313 -82.103125 45.90140625 -82.15625 44.8203125 C-82.54327984 30.08092612 -78.83726608 16.70309833 -69.3125 5.1875 C-49.97478701 -15.10606953 -22.63666909 -13.80413699 0 0 Z " fill="#ECEFF0" transform="translate(134,240)"/>
<path d="M0 0 C1.41949951 -0.00717545 1.41949951 -0.00717545 2.86767578 -0.01449585 C4.85776442 -0.01788077 6.84790974 -0.00877752 8.83789062 0.01220703 C11.86715829 0.03899316 14.89272124 0.01241148 17.921875 -0.01953125 C19.86459143 -0.0162269 21.80730558 -0.00982015 23.75 0 C24.64605957 -0.01012115 25.54211914 -0.02024231 26.46533203 -0.03067017 C32.5871136 0.08224455 37.4137803 1.27553291 41.875 5.6640625 C46.21402816 11.13388817 47.61254984 15.5211422 47.52197266 22.43164062 C47.53073425 23.26851913 47.53949585 24.10539764 47.54852295 24.96763611 C47.57037781 27.71073562 47.55601451 30.45219904 47.5390625 33.1953125 C47.54243465 35.11527818 47.54729059 37.03524178 47.55355835 38.9552002 C47.56091082 42.9698529 47.55027671 46.98394757 47.52685547 50.99853516 C47.49836869 56.12992017 47.5147814 61.25999743 47.54471779 66.39133453 C47.56283479 70.35322827 47.55701258 74.31481486 47.54407883 78.27671814 C47.54075698 80.16804664 47.54478869 82.05940355 47.55647659 83.95069885 C47.5692583 86.6000392 47.54970799 89.24729804 47.52197266 91.89648438 C47.53715439 93.0547599 47.53715439 93.0547599 47.55264282 94.23643494 C47.42257273 100.98451794 44.77872186 105.80386856 39.99391174 110.51695251 C34.5651699 113.86474351 30.02308103 114.38598059 23.71484375 114.29296875 C22.76613907 114.29538071 21.81743439 114.29779266 20.83998108 114.30027771 C18.84567053 114.29930333 16.85133155 114.28600809 14.85717773 114.26098633 C11.8172564 114.22661628 8.780237 114.24036501 5.74023438 114.25976562 C3.79425855 114.25286774 1.84829018 114.24319587 -0.09765625 114.23046875 C-0.99887711 114.23542862 -1.90009796 114.24038849 -2.82862854 114.24549866 C-8.75930627 114.13559428 -12.25093708 113.08943137 -17.125 109.6640625 C-22.30169588 104.06763452 -23.42503429 99.87952083 -23.43139648 92.35058594 C-23.43972 91.51429153 -23.44804352 90.67799713 -23.45661926 89.81636047 C-23.48071068 87.05200539 -23.48949119 84.28788643 -23.49609375 81.5234375 C-23.50506215 79.59775726 -23.51418403 77.67207774 -23.52345276 75.74639893 C-23.53994397 71.70803129 -23.54764287 67.66974656 -23.55053711 63.63134766 C-23.55591489 58.46857618 -23.59356943 53.30658936 -23.63928127 48.14403915 C-23.66909786 44.16505119 -23.6762617 40.1862509 -23.67726326 36.20716095 C-23.68145796 34.30463322 -23.69386206 32.40210454 -23.71478081 30.49968719 C-23.7417853 27.83091959 -23.73684291 25.16395388 -23.72436523 22.49511719 C-23.73919952 21.71664932 -23.75403381 20.93818146 -23.76931763 20.13612366 C-23.67950249 13.35422408 -21.05390251 8.54524213 -16.24267578 3.81240845 C-10.82867899 0.47839171 -6.29136105 -0.07106206 0 0 Z " fill="#3C97D1" transform="translate(257.125,142.3359375)"/>
<path d="M0 0 C1.43104159 -0.00677845 2.86207444 -0.01568287 4.29309082 -0.02655029 C8.17339 -0.0493239 12.0530237 -0.04051582 15.93333435 -0.02465487 C19.99626443 -0.0119856 24.05913797 -0.02373882 28.12207031 -0.03158569 C34.9447654 -0.04067931 41.76718977 -0.02870207 48.58984375 -0.00488281 C56.4749941 0.02232814 64.35949803 0.01351375 72.24463272 -0.01401484 C79.01763564 -0.03671328 85.79044408 -0.03990247 92.56347275 -0.02682149 C96.60740503 -0.01903094 100.65103358 -0.01797425 104.69494629 -0.03450394 C108.49716919 -0.04896041 112.29855968 -0.03890681 116.10069275 -0.01003265 C117.49505736 -0.00342793 118.88949216 -0.00530921 120.28382874 -0.01634598 C132.13357264 -0.10148583 132.13357264 -0.10148583 135.43847656 2.96865845 C137.66880386 6.54369158 137.84869995 8.50675294 137.109375 12.64697266 C135.46294949 15.28860409 134.78054602 16.22800098 132.109375 17.64697266 C127.48922218 18.4097688 122.87193728 18.32043521 118.20288086 18.27807617 C116.77021906 18.28321665 115.33756358 18.2904989 113.90492249 18.29975891 C110.02053783 18.3182637 106.13684009 18.30534145 102.25248408 18.28566861 C98.18642685 18.26927604 94.12041291 18.2780957 90.05433655 18.28318787 C83.22743767 18.28770765 76.40081288 18.27184504 69.57397461 18.24389648 C61.68091958 18.2118321 53.78835854 18.21186554 45.89526838 18.22911125 C38.30103735 18.24497276 30.70698746 18.2382461 23.11276436 18.22117424 C19.88115175 18.21430126 16.64968423 18.21533862 13.41807365 18.22271919 C9.61347946 18.23037843 5.80944781 18.21826858 2.00494957 18.19087029 C0.6085553 18.18398192 -0.78789147 18.18389339 -2.18428421 18.19108582 C-4.08970429 18.19976951 -5.99519058 18.18139962 -7.90052795 18.16163635 C-9.50023736 18.15742597 -9.50023736 18.15742597 -11.13226414 18.15313053 C-14.56972859 17.52235748 -15.72625607 16.33023374 -17.890625 13.64697266 C-19.33493355 10.75835556 -19.26751006 8.85049564 -18.890625 5.64697266 C-14.53104737 -1.35559891 -7.4802494 -0.05920936 0 0 Z " fill="#FEFEFE" transform="translate(313.890625,394.35302734375)"/>
<path d="M0 0 C1.20571655 -0.00860046 2.41143311 -0.01720093 3.65368652 -0.02606201 C4.99700885 -0.03049738 6.34033163 -0.03479572 7.68365479 -0.03897095 C9.09291792 -0.04687126 10.50217902 -0.05514017 11.91143799 -0.06375122 C16.54675359 -0.0899816 21.18207827 -0.10528078 25.81744385 -0.11953735 C27.41276302 -0.12489679 29.00808213 -0.1302743 30.60340118 -0.13566971 C37.23968091 -0.15730075 43.87595819 -0.17603727 50.51226425 -0.1872921 C60.02428047 -0.20352966 69.53588807 -0.23669979 79.04775023 -0.29369295 C85.7348779 -0.33239499 92.42189628 -0.35192513 99.10913301 -0.35721266 C103.10347636 -0.36086608 107.09738401 -0.37288532 111.09160614 -0.4053154 C114.85100614 -0.43540084 118.60970694 -0.4417067 122.36920166 -0.42993164 C123.74705868 -0.42971093 125.12494818 -0.438014 126.50269318 -0.45558548 C138.19929239 -0.59660972 138.19929239 -0.59660972 142.15686035 2.47161865 C144.33306885 5.15390015 144.33306885 5.15390015 145.02056885 8.65390015 C144.3647751 11.99248652 143.76961256 13.80147311 141.27386665 16.12272644 C136.54909564 18.63306503 130.64784474 17.8225919 125.42657471 17.76913452 C123.99391523 17.7726371 122.56125965 17.77829723 121.12861633 17.78594971 C117.24421134 17.80018682 113.36051513 17.78314819 109.47617793 17.75966454 C105.41013154 17.73954686 101.34411432 17.7454355 97.2780304 17.74777222 C90.45112425 17.74771866 83.62449502 17.72796995 76.79766846 17.69589233 C68.90467054 17.65898535 61.01203517 17.65021894 53.11896223 17.65718985 C45.52474442 17.66349425 37.93065093 17.65274271 30.33645821 17.63322449 C27.10487662 17.62504941 23.87335856 17.62234113 20.6417675 17.62391663 C16.83724759 17.62479537 13.03307239 17.61058266 9.22864342 17.58469009 C7.83224916 17.5775264 6.43581823 17.57544567 5.03940964 17.57880783 C3.13397155 17.58252062 1.22852605 17.56593772 -0.67683411 17.54830933 C-1.74330705 17.54458061 -2.80977999 17.5408519 -3.90857029 17.53701019 C-7.03336528 17.10300594 -8.40148972 16.31037611 -10.66693115 14.15390015 C-11.73072018 11.50550872 -11.9157115 8.98999615 -11.66693115 6.15390015 C-8.36302328 0.79929083 -6.04870757 0.03203098 0 0 Z " fill="#FDFEFE" transform="translate(306.66693115234375,359.8460998535156)"/>
<path d="M0 0 C0.7437236 -0.0087616 1.4874472 -0.01752319 2.25370789 -0.02655029 C4.7029418 -0.0484899 7.15035833 -0.03401275 9.59960938 -0.01708984 C11.30684759 -0.02045959 13.01408346 -0.02531353 14.72131348 -0.03158569 C18.29572436 -0.03894959 21.86950962 -0.02826763 25.44384766 -0.00488281 C30.02077278 0.02360533 34.59623197 0.00719867 39.17310333 -0.02274513 C42.6973979 -0.04083156 46.22134612 -0.03505406 49.74565125 -0.02210617 C51.43291905 -0.01877584 53.12021852 -0.02284615 54.80744934 -0.03450394 C57.16805029 -0.04723572 59.52629306 -0.02780751 61.88671875 0 C62.58089401 -0.01012115 63.27506927 -0.02024231 63.99028015 -0.03067017 C67.79734243 0.0522227 69.37057311 0.58866363 72.38049316 2.99990845 C74.44335938 5.64697266 74.44335938 5.64697266 75.00585938 8.64697266 C74.31542081 12.32931169 73.0752201 14.01511193 70.44335938 16.64697266 C66.92167862 17.82086624 64.10686451 17.79566692 60.38916016 17.82397461 C59.3179039 17.83383141 59.3179039 17.83383141 58.2250061 17.84388733 C55.8628936 17.86358955 53.50084452 17.87527491 51.13867188 17.88525391 C49.92754541 17.8913672 49.92754541 17.8913672 48.69195175 17.89760399 C44.41979987 17.91844982 40.14767999 17.93275896 35.87548828 17.94213867 C31.46469351 17.95321086 27.05440214 17.98762392 22.64378548 18.02731037 C19.24998031 18.05345777 15.85629557 18.06182872 12.46239853 18.06542015 C10.83650175 18.07028959 9.21061048 18.08191384 7.58481216 18.10045815 C5.30825104 18.12481491 3.03299926 18.12389187 0.75634766 18.11694336 C-0.53810272 18.1228096 -1.8325531 18.12867584 -3.16622925 18.13471985 C-7.12202871 17.56563549 -8.7532393 16.43731005 -11.55664062 13.64697266 C-13.00094917 10.75835556 -12.93352568 8.85049564 -12.55664062 5.64697266 C-8.85273473 0.84581522 -5.83340906 -0.08505177 0 0 Z " fill="#FDFEFE" transform="translate(307.556640625,429.35302734375)"/>
<path d="M0 0 C0.33 0 0.66 0 1 0 C1.49697654 5.96371851 0.34894203 10.00920652 -3 15 C-8.25656297 20.1217793 -13.35813857 21.31455278 -20.53125 21.37109375 C-21.24478638 21.38012222 -21.95832275 21.3891507 -22.69348145 21.39845276 C-24.19616531 21.4129048 -25.69891137 21.4218294 -27.20166016 21.42553711 C-29.49359034 21.43746664 -31.78285332 21.48671998 -34.07421875 21.53710938 C-35.53904945 21.54657146 -37.00389656 21.55380753 -38.46875 21.55859375 C-39.14909302 21.57812607 -39.82943604 21.59765839 -40.53039551 21.61778259 C-44.39294502 21.58133946 -45.90194643 21.08060038 -48.92700195 18.59399414 C-51.70634756 15.11612969 -51.70634756 15.11612969 -51.6875 12 C-51.71199219 11.360625 -51.73648437 10.72125 -51.76171875 10.0625 C-50.50232585 6.65245153 -48.10059255 4.70477967 -45 3 C-41.51120979 2.32849783 -38.11219662 2.415843 -34.5703125 2.51171875 C-33.57998016 2.51879349 -32.58964783 2.52586823 -31.56930542 2.53315735 C-28.42042039 2.56104407 -25.2733434 2.62377322 -22.125 2.6875 C-19.98440076 2.71259021 -17.84377353 2.73540211 -15.703125 2.75585938 C-10.46813788 2.81085145 -5.23419813 2.89441968 0 3 C0 2.01 0 1.02 0 0 Z " fill="#C0C5C8" transform="translate(468,131)"/>
<path d="M0 0 C0.33 0 0.66 0 1 0 C1.45242808 6.33399314 0.76193228 10.77136199 -3 16 C-8.53882054 21.94520139 -16.26414397 22.77677889 -24.0456543 23.14355469 C-27.14181259 23.1524255 -30.21905888 23.06388194 -33.3125 22.9375 C-34.35728516 22.92267578 -35.40207031 22.90785156 -36.47851562 22.89257812 C-44.95846895 22.57451249 -44.95846895 22.57451249 -48.6875 19.69140625 C-51.80484346 16.06328185 -51.80484346 16.06328185 -51.6875 13 C-51.69136719 12.360625 -51.69523437 11.72125 -51.69921875 11.0625 C-50.53305981 7.62265687 -48.87801525 6.21838552 -46 4 C-42.4776118 3.30673056 -39.02729131 3.41753428 -35.44921875 3.51171875 C-34.43527542 3.51879349 -33.42133209 3.52586823 -32.37666321 3.53315735 C-29.1461837 3.56108988 -25.91745339 3.62382838 -22.6875 3.6875 C-20.4941657 3.71258425 -18.30080416 3.73539719 -16.10742188 3.75585938 C-10.73768698 3.81091245 -5.36896846 3.89452727 0 4 C0 2.68 0 1.36 0 0 Z " fill="#BFC5C7" transform="translate(468,165)"/>
<path d="M0 0 C0.83637497 0.00707474 1.67274994 0.01414948 2.5344696 0.0214386 C5.19447927 0.0493314 7.85235014 0.11205644 10.51171875 0.17578125 C12.31963096 0.20087091 14.12757632 0.22368292 15.93554688 0.24414062 C20.35758948 0.29914083 24.77804206 0.38537482 29.19921875 0.48828125 C28.1834766 8.28637738 28.1834766 8.28637738 26.01171875 11.23828125 C25.62628906 11.79 25.24085938 12.34171875 24.84375 12.91015625 C18.7891509 18.72027035 11.38728761 18.00479937 3.57421875 17.98828125 C2.34703125 18.01664063 1.11984375 18.045 -0.14453125 18.07421875 C-1.32273437 18.07679688 -2.5009375 18.079375 -3.71484375 18.08203125 C-4.78686035 18.08912109 -5.85887695 18.09621094 -6.96337891 18.10351562 C-9.80078125 17.48828125 -9.80078125 17.48828125 -12.14599609 15.16992188 C-14.33974897 11.6148641 -14.46122975 9.59773861 -13.80078125 5.48828125 C-9.724732 -0.03150455 -6.37547 -0.20428194 0 0 Z " fill="#BDC3C6" transform="translate(430.80078125,203.51171875)"/>
</svg>
