<?xml version="1.0" encoding="UTF-8"?>
<svg version="1.1" xmlns="http://www.w3.org/2000/svg" width="320" height="211">
<path d="M0 0 C1.22126839 0.00212242 1.22126839 0.00212242 2.46720886 0.00428772 C5.05500031 0.00986308 7.64270367 0.02241101 10.23046875 0.03515625 C11.99023312 0.04017444 13.74999886 0.04473679 15.50976562 0.04882812 C19.81253369 0.05982444 24.11523631 0.07707204 28.41796875 0.09765625 C30.61640515 3.66143736 30.72307344 6.69163431 30.83203125 10.83203125 C30.89003906 12.77529297 30.89003906 12.77529297 30.94921875 14.7578125 C30.98067142 16.12108909 31.01191882 17.48437043 31.04296875 18.84765625 C31.08117344 20.22658653 31.12022662 21.60549359 31.16015625 22.984375 C31.25444879 26.35533343 31.34005095 29.72628603 31.41796875 33.09765625 C28.77796875 33.75765625 26.13796875 34.41765625 23.41796875 35.09765625 C24.19140625 36.92296875 24.19140625 36.92296875 24.98046875 38.78515625 C26.30430119 42.26794907 26.6638776 44.47319413 25.41796875 48.09765625 C22.64377496 47.07190393 21.5958538 46.42268079 20.15234375 43.78515625 C19.8275 42.89828125 19.50265625 42.01140625 19.16796875 41.09765625 C18.8328125 40.21078125 18.49765625 39.32390625 18.15234375 38.41015625 C17.41796875 36.09765625 17.41796875 36.09765625 17.41796875 34.09765625 C11.47796875 34.09765625 5.53796875 34.09765625 -0.58203125 34.09765625 C-2.23203125 38.38765625 -3.88203125 42.67765625 -5.58203125 47.09765625 C-6.90203125 47.09765625 -8.22203125 47.09765625 -9.58203125 47.09765625 C-10.84158356 43.31899932 -10.06290314 42.06353839 -8.64453125 38.41015625 C-8.26425781 37.41628906 -7.88398438 36.42242187 -7.4921875 35.3984375 C-7.19183594 34.63917969 -6.89148438 33.87992188 -6.58203125 33.09765625 C-7.51015625 33.28328125 -8.43828125 33.46890625 -9.39453125 33.66015625 C-12.58203125 34.09765625 -12.58203125 34.09765625 -15.58203125 33.09765625 C-15.51636963 32.51064941 -15.45070801 31.92364258 -15.38305664 31.31884766 C-14.67845071 24.70758649 -14.28999537 18.11454552 -14.01953125 11.47265625 C-13.95475586 9.96638672 -13.95475586 9.96638672 -13.88867188 8.4296875 C-13.78393266 5.98577242 -13.68175869 3.54178008 -13.58203125 1.09765625 C-9.06146029 -0.03937161 -4.62863342 -0.03049009 0 0 Z M-8.58203125 5.09765625 C-9.2811884 8.59344198 -9.70437609 11.09172418 -9.6796875 14.5234375 C-9.67646484 15.31943359 -9.67324219 16.11542969 -9.66992188 16.93554688 C-9.66154297 17.75216797 -9.65316406 18.56878906 -9.64453125 19.41015625 C-9.64001953 20.24611328 -9.63550781 21.08207031 -9.63085938 21.94335938 C-9.61913673 23.99482274 -9.60120328 26.04624898 -9.58203125 28.09765625 C-6.34661955 29.7153621 -2.81995774 29.24045287 0.73046875 29.22265625 C1.49037109 29.22652344 2.25027344 29.23039062 3.03320312 29.234375 C4.14598633 29.23244141 4.14598633 29.23244141 5.28125 29.23046875 C6.29119019 29.22877686 6.29119019 29.22877686 7.3215332 29.22705078 C9.92291853 29.11395747 9.92291853 29.11395747 14.41796875 28.09765625 C18.04796875 28.09765625 21.67796875 28.09765625 25.41796875 28.09765625 C25.41796875 20.50765625 25.41796875 12.91765625 25.41796875 5.09765625 C14.19796875 5.09765625 2.97796875 5.09765625 -8.58203125 5.09765625 Z " fill="#564375" transform="translate(145.58203125,59.90234375)"/>
<path d="M0 0 C0.89009766 -0.00128906 1.78019531 -0.00257812 2.69726562 -0.00390625 C3.63376953 -0.00003906 4.57027344 0.00382812 5.53515625 0.0078125 C6.46779297 0.00394531 7.40042969 0.00007813 8.36132812 -0.00390625 C9.25271484 -0.00261719 10.14410156 -0.00132813 11.0625 0 C11.88355225 0.00112793 12.70460449 0.00225586 13.55053711 0.00341797 C15.59765625 0.1328125 15.59765625 0.1328125 17.59765625 1.1328125 C18.89487074 5.02445598 18.72799618 8.02710476 18.59765625 12.1328125 C18.26765625 12.7928125 17.93765625 13.4528125 17.59765625 14.1328125 C16.93765625 14.1328125 16.27765625 14.1328125 15.59765625 14.1328125 C15.59765625 14.7928125 15.59765625 15.4528125 15.59765625 16.1328125 C16.23703125 16.2359375 16.87640625 16.3390625 17.53515625 16.4453125 C18.21578125 16.6721875 18.89640625 16.8990625 19.59765625 17.1328125 C21.91659702 24.08963481 20.51621987 28.77341598 17.59765625 35.1328125 C13.95183938 35.16168762 10.30605162 35.17956835 6.66015625 35.1953125 C5.0987793 35.20788086 5.0987793 35.20788086 3.50585938 35.22070312 C2.51650391 35.22392578 1.52714844 35.22714844 0.5078125 35.23046875 C-0.86685181 35.23832397 -0.86685181 35.23832397 -2.26928711 35.24633789 C-4.40234375 35.1328125 -4.40234375 35.1328125 -5.40234375 34.1328125 C-5.50317139 31.69620804 -5.54206978 29.28856549 -5.53515625 26.8515625 C-5.53611298 26.12287964 -5.5370697 25.39419678 -5.53805542 24.64343262 C-5.5387371 23.1000154 -5.53688363 21.55659533 -5.53271484 20.01318359 C-5.52736637 17.6428385 -5.53266017 15.27268291 -5.5390625 12.90234375 C-5.53840172 11.40624958 -5.53712055 9.91015553 -5.53515625 8.4140625 C-5.53718048 7.70052612 -5.53920471 6.98698975 -5.54129028 6.25183105 C-5.51490579 0.74935721 -5.4915593 0.00755447 0 0 Z M1.59765625 8.1328125 C1.59765625 9.4528125 1.59765625 10.7728125 1.59765625 12.1328125 C3.24765625 11.8028125 4.89765625 11.4728125 6.59765625 11.1328125 C6.59765625 10.1428125 6.59765625 9.1528125 6.59765625 8.1328125 C4.94765625 8.1328125 3.29765625 8.1328125 1.59765625 8.1328125 Z M2.59765625 19.1328125 C2.59765625 21.1128125 2.59765625 23.0928125 2.59765625 25.1328125 C4.57765625 25.1328125 6.55765625 25.1328125 8.59765625 25.1328125 C8.97984392 23.47666593 9.31160727 21.80824226 9.59765625 20.1328125 C8.4723152 18.77662751 8.4723152 18.77662751 5.53515625 19.0703125 C4.56578125 19.0909375 3.59640625 19.1115625 2.59765625 19.1328125 Z " fill="#664E8A" transform="translate(154.40234375,116.8671875)"/>
<path d="M0 0 C0.721875 0.00257812 1.44375 0.00515625 2.1875 0.0078125 C2.909375 0.00523438 3.63125 0.00265625 4.375 0 C6.1875 0.1328125 6.1875 0.1328125 7.1875 1.1328125 C7.27615208 4.0171507 7.30271296 6.87743408 7.28515625 9.76171875 C7.2837413 10.62594955 7.28232635 11.49018036 7.28086853 12.38059998 C7.27525239 15.15220542 7.26269719 17.9237313 7.25 20.6953125 C7.24498708 22.5696603 7.24042381 24.44400935 7.23632812 26.31835938 C7.22527772 30.92320794 7.2080023 35.52799671 7.1875 40.1328125 C3.11112978 42.44570952 0.80804088 41.97991166 -3.8125 41.1328125 C-4.51375 41.08125 -5.215 41.0296875 -5.9375 40.9765625 C-11.31621641 40.58106865 -11.31621641 40.58106865 -13.75 38.3828125 C-15.98617603 33.64738091 -15.92332547 28.99113727 -15.875 23.8203125 C-15.86597656 22.56605469 -15.85695312 21.31179687 -15.84765625 20.01953125 C-15.83605469 19.06691406 -15.82445312 18.11429688 -15.8125 17.1328125 C-11.77957255 14.8983527 -8.36282566 14.58784507 -3.8125 14.1328125 C-3.75191406 13.20597656 -3.69132812 12.27914062 -3.62890625 11.32421875 C-3.54511719 10.12667969 -3.46132813 8.92914063 -3.375 7.6953125 C-3.29378906 6.50035156 -3.21257812 5.30539063 -3.12890625 4.07421875 C-2.71202054 0.19872564 -2.71202054 0.19872564 0 0 Z M-6.8125 30.1328125 C-6.8125 31.7828125 -6.8125 33.4328125 -6.8125 35.1328125 C-5.4925 35.1328125 -4.1725 35.1328125 -2.8125 35.1328125 C-2.8125 33.1528125 -2.8125 31.1728125 -2.8125 29.1328125 C-4.18143239 29.08010787 -4.18143239 29.08010787 -6.8125 30.1328125 Z " fill="#674E8C" transform="translate(261.8125,110.8671875)"/>
<path d="M0 0 C19.06417291 0.04073541 19.06417291 0.04073541 21.15625 2.1328125 C22.31892301 8.07536342 22.51173556 14.08955806 22.15625 20.1328125 C21.15625 21.1328125 21.15625 21.1328125 19.30859375 21.23046875 C17.2578125 21.19791667 15.20703125 21.16536458 13.15625 21.1328125 C13.16785156 22.13183594 13.17945312 23.13085938 13.19140625 24.16015625 C13.20042969 25.45050781 13.20945312 26.74085938 13.21875 28.0703125 C13.23035156 29.35808594 13.24195312 30.64585937 13.25390625 31.97265625 C13.15625 35.1328125 13.15625 35.1328125 12.15625 36.1328125 C10.15666636 36.17362033 8.15579746 36.17535606 6.15625 36.1328125 C4.25016902 32.92099101 3.93358753 30.59398647 4.03125 26.8828125 C4.04929687 25.99078125 4.06734375 25.09875 4.0859375 24.1796875 C4.12074219 23.16648438 4.12074219 23.16648438 4.15625 22.1328125 C1.84625 22.1328125 -0.46375 22.1328125 -2.84375 22.1328125 C-4.00956918 19.80117414 -3.97280609 18.41127768 -3.9765625 15.81640625 C-3.97785156 14.97013672 -3.97914062 14.12386719 -3.98046875 13.25195312 C-3.97660156 12.36701172 -3.97273438 11.48207031 -3.96875 10.5703125 C-3.97261719 9.68150391 -3.97648437 8.79269531 -3.98046875 7.87695312 C-3.97917969 7.03197266 -3.97789063 6.18699219 -3.9765625 5.31640625 C-3.97543457 4.53837646 -3.97430664 3.76034668 -3.97314453 2.95874023 C-3.75596388 -0.10596554 -3.10529987 0.14502774 0 0 Z " fill="#684E8E" transform="translate(34.84375,115.8671875)"/>
<path d="M0 0 C3 0.125 3 0.125 4 1.125 C4.07271741 3.47813555 4.08370868 5.83333668 4.0625 8.1875 C4.05347656 9.47785156 4.04445313 10.76820312 4.03515625 12.09765625 C4.02355469 13.09667969 4.01195313 14.09570312 4 15.125 C4.66 14.795 5.32 14.465 6 14.125 C7.49649362 14.00494547 8.99874793 13.94968549 10.5 13.9375 C11.69109375 13.91623047 11.69109375 13.91623047 12.90625 13.89453125 C15 14.125 15 14.125 17 16.125 C17.22705078 18.46337891 17.22705078 18.46337891 17.1953125 21.3515625 C17.18886719 22.3828125 17.18242188 23.4140625 17.17578125 24.4765625 C17.15902344 25.55679688 17.14226562 26.63703125 17.125 27.75 C17.11597656 28.83796875 17.10695313 29.9259375 17.09765625 31.046875 C17.07403409 33.73980152 17.04109556 36.43229255 17 39.125 C13.61682513 40.10091583 11.4342662 39.98356655 8 39.125 C6.90493508 35.83980525 6.90039392 33.38836585 6.9375 29.9375 C6.94652344 28.85082031 6.95554687 27.76414063 6.96484375 26.64453125 C6.97644531 25.81308594 6.98804687 24.98164063 7 24.125 C6.01 24.455 5.02 24.785 4 25.125 C3.93941406 26.12402344 3.87882812 27.12304688 3.81640625 28.15234375 C3.73261719 29.44269531 3.64882812 30.73304688 3.5625 32.0625 C3.48128906 33.35027344 3.40007812 34.63804687 3.31640625 35.96484375 C3 39.125 3 39.125 2 40.125 C-0.5 40.25 -0.5 40.25 -3 40.125 C-4.84276509 38.28223491 -4.12874411 35.69536241 -4.13894653 33.24365234 C-4.1369223 32.42074707 -4.13489807 31.5978418 -4.1328125 30.75 C-4.13376923 29.91033691 -4.13472595 29.07067383 -4.13571167 28.20556641 C-4.13639348 26.42675705 -4.13453917 24.64794523 -4.13037109 22.86914062 C-4.12502283 20.13666224 -4.13031605 17.40434824 -4.13671875 14.671875 C-4.13605797 12.9479163 -4.13477681 11.22395771 -4.1328125 9.5 C-4.13483673 8.67709473 -4.13686096 7.85418945 -4.13894653 7.00634766 C-4.1105034 0.17127097 -4.1105034 0.17127097 0 0 Z " fill="#654D89" transform="translate(63,112.875)"/>
<path d="M0 0 C2.97953359 0.14017826 5.95849304 0.28686342 8.9375 0.4375 C9.78763672 0.47681641 10.63777344 0.51613281 11.51367188 0.55664062 C12.32255859 0.59853516 13.13144531 0.64042969 13.96484375 0.68359375 C15.08814087 0.73858032 15.08814087 0.73858032 16.23413086 0.79467773 C18 1 18 1 19 2 C19.471188 9.78008091 19.08212919 17.19751524 17.33984375 24.79296875 C16.80209785 27.16783187 16.80209785 27.16783187 18 30 C17.67 30.66 17.34 31.32 17 32 C13.24100486 31.40647445 9.49261909 30.75135888 5.75 30.0625 C4.89921875 29.90910156 4.0484375 29.75570312 3.171875 29.59765625 C1 29 1 29 -1 27 C-1.56520003 24.34462628 -1.73788198 21.70855287 -2 19 C2.10457614 16.01485372 4.97745369 15.7045561 10 16 C9.67 15.34 9.34 14.68 9 14 C6.67646015 13.57014306 6.67646015 13.57014306 4 13.4375 C-0.90381679 13.09618321 -0.90381679 13.09618321 -2 12 C-2.24010003 7.11796602 -2.28385682 4.32954082 0 0 Z M7 21 C7 21.99 7 22.98 7 24 C7.66 24 8.32 24 9 24 C8.67 23.01 8.34 22.02 8 21 C7.67 21 7.34 21 7 21 Z " fill="#664E88" transform="translate(202,124)"/>
<path d="M0 0 C2.33944736 0.28730055 4.6739143 0.61936779 7 1 C7.33 5.29 7.66 9.58 8 14 C9.98 11.69 11.96 9.38 14 7 C17.95646959 9.08813673 20.54814337 11.22791287 23 15 C21.84906278 18.45281166 20.6794007 19.38082163 17.9375 21.6875 C16.83728516 22.62142578 16.83728516 22.62142578 15.71484375 23.57421875 C15.14894531 24.04472656 14.58304688 24.51523438 14 25 C14.309375 25.7425 14.61875 26.485 14.9375 27.25 C15.8094925 29.50692176 16.47667007 31.6450153 17 34 C15.35 34.66 13.7 35.32 12 36 C10.02 34.35 8.04 32.7 6 31 C5.67 32.32 5.34 33.64 5 35 C3.33388095 35.042721 1.66617115 35.04063832 0 35 C-1.70492881 33.29507119 -1.1280442 31.15465739 -1.13894653 28.88098145 C-1.1369223 28.16744507 -1.13489807 27.45390869 -1.1328125 26.71875 C-1.13376923 25.99006714 -1.13472595 25.26138428 -1.13571167 24.51062012 C-1.13639335 22.9672029 -1.13453988 21.42378283 -1.13037109 19.88037109 C-1.12502262 17.510026 -1.13031642 15.13987041 -1.13671875 12.76953125 C-1.13605797 11.27343708 -1.1347768 9.77734303 -1.1328125 8.28125 C-1.13483673 7.56771362 -1.13686096 6.85417725 -1.13894653 6.11901855 C-1.11495191 1.11495191 -1.11495191 1.11495191 0 0 Z " fill="#684E8D" transform="translate(121,117)"/>
<path d="M0 0 C3.5625 0.125 3.5625 0.125 5.5625 1.125 C6.8825 1.125 8.2025 1.125 9.5625 1.125 C13.5625 1.125 13.5625 1.125 15.5625 2.125 C16.2513091 11.25966832 16.86442693 20.01151147 15.5625 29.125 C12.9225 28.795 10.2825 28.465 7.5625 28.125 C6.9025 23.505 6.2425 18.885 5.5625 14.125 C2.79207891 16.89542109 3.16453894 18.89033805 2.9375 22.75 C2.86273438 23.93851563 2.78796875 25.12703125 2.7109375 26.3515625 C2.66195312 27.26679688 2.61296875 28.18203125 2.5625 29.125 C0.1875 29.25 0.1875 29.25 -2.4375 29.125 C-4.4375 27.125 -4.4375 27.125 -4.68041992 24.52709961 C-4.67631104 23.45468018 -4.67220215 22.38226074 -4.66796875 21.27734375 C-4.66603516 20.11525391 -4.66410156 18.95316406 -4.66210938 17.75585938 C-4.64986328 16.53705078 -4.63761719 15.31824219 -4.625 14.0625 C-4.62435547 12.83982422 -4.62371094 11.61714844 -4.62304688 10.35742188 C-4.57211935 0.16625889 -4.57211935 0.16625889 0 0 Z " fill="#684E8D" transform="translate(100.4375,123.875)"/>
<path d="M0 0 C0.93328125 -0.01417969 1.8665625 -0.02835937 2.828125 -0.04296875 C6.06087006 0.2120205 8.72245964 1.05441167 11.75 2.1875 C12.33106169 19.92064204 12.33106169 19.92064204 8.75 26.1875 C5.11639194 27.48628966 1.57809243 27.46093517 -2.25 27.1875 C-5.4350357 25.42734869 -6.08296972 24.68859084 -7.25 21.1875 C-7.5033696 18.92124965 -7.70547477 16.64905981 -7.875 14.375 C-7.97039062 13.17230469 -8.06578125 11.96960938 -8.1640625 10.73046875 C-8.24597155 7.353582 -8.06287442 4.46348185 -7.25 1.1875 C-4.70487699 -0.0850615 -2.84258049 0.01941653 0 0 Z M-1.25 13.1875 C-1.25 14.1775 -1.25 15.1675 -1.25 16.1875 C0.07 15.8575 1.39 15.5275 2.75 15.1875 C2.75 14.5275 2.75 13.8675 2.75 13.1875 C1.43 13.1875 0.11 13.1875 -1.25 13.1875 Z " fill="#694F8E" transform="translate(185.25,124.8125)"/>
<path d="M0 0 C3.5625 0.125 3.5625 0.125 5.5625 1.125 C7.56210012 1.164992 9.56297242 1.16846799 11.5625 1.125 C13.31997614 5.62853262 13.75544408 9.30139811 13.5625 14.125 C10.9225 14.125 8.2825 14.125 5.5625 14.125 C4.9025 19.075 4.2425 24.025 3.5625 29.125 C1.2525 29.125 -1.0575 29.125 -3.4375 29.125 C-5.24029191 27.32220809 -4.56786605 24.58452299 -4.5703125 22.15625 C-4.57160156 20.94582031 -4.57289063 19.73539063 -4.57421875 18.48828125 C-4.57035156 17.21339844 -4.56648437 15.93851563 -4.5625 14.625 C-4.56636719 13.35011719 -4.57023438 12.07523438 -4.57421875 10.76171875 C-4.57292969 9.55128906 -4.57164062 8.34085938 -4.5703125 7.09375 C-4.56918457 5.97419922 -4.56805664 4.85464844 -4.56689453 3.70117188 C-4.36921502 -0.23451526 -4.0671516 0.14789642 0 0 Z " fill="#674E8D" transform="translate(229.4375,123.875)"/>
<path d="M0 0 C1.21771088 -0.00143509 1.21771088 -0.00143509 2.46002197 -0.00289917 C4.16784747 -0.00357735 5.8756756 -0.00174838 7.58349609 0.00244141 C10.20806584 0.00782263 12.83246661 0.00247 15.45703125 -0.00390625 C17.11718788 -0.00324595 18.7773444 -0.00196578 20.4375 0 C21.62022491 -0.00303635 21.62022491 -0.00303635 22.82684326 -0.00613403 C28.33815535 0.01784285 28.33815535 0.01784285 29.453125 1.1328125 C29.53998103 2.69453995 29.56014719 4.26010594 29.55078125 5.82421875 C29.54755859 6.76845703 29.54433594 7.71269531 29.54101562 8.68554688 C29.52844727 10.17538086 29.52844727 10.17538086 29.515625 11.6953125 C29.51111328 12.69240234 29.50660156 13.68949219 29.50195312 14.71679688 C29.49012507 17.18886099 29.47364349 19.66080768 29.453125 22.1328125 C28.463125 22.1328125 27.473125 22.1328125 26.453125 22.1328125 C26.123125 16.5228125 25.793125 10.9128125 25.453125 5.1328125 C13.903125 5.1328125 2.353125 5.1328125 -9.546875 5.1328125 C-9.546875 8.4328125 -9.546875 11.7328125 -9.546875 15.1328125 C-9.67670583 17.0107227 -9.83313571 18.88759372 -10.046875 20.7578125 C-10.1396875 21.59570312 -10.2325 22.43359375 -10.328125 23.296875 C-10.4003125 23.90273437 -10.4725 24.50859375 -10.546875 25.1328125 C-12.546875 24.1328125 -12.546875 24.1328125 -13.546875 23.1328125 C-13.63387842 21.49808368 -13.65388563 19.85967195 -13.64453125 18.22265625 C-13.64130859 17.23330078 -13.63808594 16.24394531 -13.63476562 15.22460938 C-13.62638672 14.18369141 -13.61800781 13.14277344 -13.609375 12.0703125 C-13.60486328 11.02552734 -13.60035156 9.98074219 -13.59570312 8.90429688 C-13.58387413 6.3137459 -13.56739189 3.72330691 -13.546875 1.1328125 C-9.0399767 0.0055282 -4.61485685 -0.0119704 0 0 Z " fill="#5B477B" transform="translate(145.546875,59.8671875)"/>
<path d="M0 0 C1.32 0 2.64 0 4 0 C3.67 0.66 3.34 1.32 3 2 C2.01 2 1.02 2 0 2 C0.1181656 6.09362106 0.24240784 10.18700767 0.37231445 14.28027344 C0.41565846 15.6731259 0.45733396 17.06603131 0.49731445 18.45898438 C0.55502932 20.45976651 0.61921869 22.46035859 0.68359375 24.4609375 C0.72025146 25.66540527 0.75690918 26.86987305 0.79467773 28.11083984 C0.81052987 30.93996367 0.81052987 30.93996367 2 33 C2.99 31.02 3.98 29.04 5 27 C6.66666667 27 8.33333333 27 10 27 C10.309375 26.1646875 10.309375 26.1646875 10.625 25.3125 C11.98849389 23.01935118 13.05792637 22.04630731 15.125 20.4375 C16.07375 19.633125 17.0225 18.82875 18 18 C18 17.01 18 16.02 18 15 C17.34 15.66 16.68 16.32 16 17 C13.875 16.625 13.875 16.625 12 16 C12 16.66 12 17.32 12 18 C11.34 17.67 10.68 17.34 10 17 C8.68 16.67 7.36 16.34 6 16 C6 11.38 6 6.76 6 2 C6.33 2 6.66 2 7 2 C7.33 5.96 7.66 9.92 8 14 C9.98 11.69 11.96 9.38 14 7 C17.95646959 9.08813673 20.54814337 11.22791287 23 15 C21.84906278 18.45281166 20.6794007 19.38082163 17.9375 21.6875 C16.83728516 22.62142578 16.83728516 22.62142578 15.71484375 23.57421875 C15.14894531 24.04472656 14.58304688 24.51523438 14 25 C14.309375 25.7425 14.61875 26.485 14.9375 27.25 C15.8094925 29.50692176 16.47667007 31.6450153 17 34 C15.35 34.66 13.7 35.32 12 36 C10.02 34.35 8.04 32.7 6 31 C5.67 32.32 5.34 33.64 5 35 C3.33388095 35.042721 1.66617115 35.04063832 0 35 C-1.70492881 33.29507119 -1.1280442 31.15465739 -1.13894653 28.88098145 C-1.1369223 28.16744507 -1.13489807 27.45390869 -1.1328125 26.71875 C-1.13376923 25.99006714 -1.13472595 25.26138428 -1.13571167 24.51062012 C-1.13639335 22.9672029 -1.13453988 21.42378283 -1.13037109 19.88037109 C-1.12502262 17.510026 -1.13031642 15.13987041 -1.13671875 12.76953125 C-1.13605797 11.27343708 -1.1347768 9.77734303 -1.1328125 8.28125 C-1.13483673 7.56771362 -1.13686096 6.85417725 -1.13894653 6.11901855 C-1.11495191 1.11495191 -1.11495191 1.11495191 0 0 Z " fill="#5F4B81" transform="translate(121,117)"/>
<path d="M0 0 C2.31 0.33 4.62 0.66 7 1 C7.33 1.99 7.66 2.98 8 4 C6.02 4.33 4.04 4.66 2 5 C2.8604139 9.33229715 2.8604139 9.33229715 5 13 C10.87646031 13.46331437 10.87646031 13.46331437 16 11 C16.33 10.34 16.66 9.68 17 9 C17.66 9 18.32 9 19 9 C19 8.01 19 7.02 19 6 C20.32 6.33 21.64 6.66 23 7 C22.34 11.29 21.68 15.58 21 20 C14.5424435 22.15251883 6.5841934 21.46315409 0 20 C-1.01593448 13.11422188 -0.83854735 6.90188971 0 0 Z " fill="#694E8E" transform="translate(151,130)"/>
<path d="M0 0 C6.72 0.72 6.72 0.72 8 2 C8.0167793 4.00163877 7.96262541 6.00394864 7.87890625 8.00390625 C7.83056641 9.21884766 7.78222656 10.43378906 7.73242188 11.68554688 C7.67634766 12.96494141 7.62027344 14.24433594 7.5625 15.5625 C7.51029297 16.84576172 7.45808594 18.12902344 7.40429688 19.45117188 C7.2741304 22.63433391 7.13914999 25.81722004 7 29 C4.66705225 29.04241723 2.33297433 29.04092937 0 29 C-1.80279191 27.19720809 -1.13036605 24.45952299 -1.1328125 22.03125 C-1.13410156 20.82082031 -1.13539062 19.61039063 -1.13671875 18.36328125 C-1.13285156 17.08839844 -1.12898438 15.81351563 -1.125 14.5 C-1.12886719 13.22511719 -1.13273437 11.95023438 -1.13671875 10.63671875 C-1.13542969 9.42628906 -1.13414063 8.21585938 -1.1328125 6.96875 C-1.13168457 5.84919922 -1.13055664 4.72964844 -1.12939453 3.57617188 C-1 1 -1 1 0 0 Z " fill="#674D8D" transform="translate(85,124)"/>
<path d="M0 0 C1.22589844 0.01353516 1.22589844 0.01353516 2.4765625 0.02734375 C3.41628906 0.04474609 3.41628906 0.04474609 4.375 0.0625 C4.375 0.3925 4.375 0.7225 4.375 1.0625 C1.735 1.7225 -0.905 2.3825 -3.625 3.0625 C-2.41328886 6.71628152 -2.41328886 6.71628152 -0.625 10.0625 C2.42681069 11.58223152 2.42681069 11.58223152 5.375 12.0625 C4.715 14.0425 4.055 16.0225 3.375 18.0625 C1.395 18.0625 -0.585 18.0625 -2.625 18.0625 C-1.965 20.0425 -1.305 22.0225 -0.625 24.0625 C1.685 24.0625 3.995 24.0625 6.375 24.0625 C6.375 23.4025 6.375 22.7425 6.375 22.0625 C7.365 21.4025 8.355 20.7425 9.375 20.0625 C10.60999448 14.19627624 10.26213698 8.95854886 9.375 3.0625 C8.055 2.7325 6.735 2.4025 5.375 2.0625 C5.705 1.4025 6.035 0.7425 6.375 0.0625 C8.355 0.7225 10.335 1.3825 12.375 2.0625 C12.95606169 19.79564204 12.95606169 19.79564204 9.375 26.0625 C5.74139194 27.36128966 2.20309243 27.33593517 -1.625 27.0625 C-4.8100357 25.30234869 -5.45796972 24.56359084 -6.625 21.0625 C-6.8783696 18.79624965 -7.08047477 16.52405981 -7.25 14.25 C-7.34539062 13.04730469 -7.44078125 11.84460938 -7.5390625 10.60546875 C-7.62097155 7.228582 -7.43787442 4.33848185 -6.625 1.0625 C-4.21954362 -0.14022819 -2.67503047 -0.03821472 0 0 Z M-0.625 13.0625 C-0.625 14.0525 -0.625 15.0425 -0.625 16.0625 C0.695 15.7325 2.015 15.4025 3.375 15.0625 C3.375 14.4025 3.375 13.7425 3.375 13.0625 C2.055 13.0625 0.735 13.0625 -0.625 13.0625 Z " fill="#634C86" transform="translate(184.625,124.9375)"/>
<path d="M0 0 C0.721875 0.00257812 1.44375 0.00515625 2.1875 0.0078125 C2.909375 0.00523438 3.63125 0.00265625 4.375 0 C6.1875 0.1328125 6.1875 0.1328125 7.1875 1.1328125 C7.27615208 4.0171507 7.30271296 6.87743408 7.28515625 9.76171875 C7.2837413 10.62594955 7.28232635 11.49018036 7.28086853 12.38059998 C7.27525239 15.15220542 7.26269719 17.9237313 7.25 20.6953125 C7.24498708 22.5696603 7.24042381 24.44400935 7.23632812 26.31835938 C7.22527772 30.92320794 7.2080023 35.52799671 7.1875 40.1328125 C3.11112978 42.44570952 0.80804088 41.97991166 -3.8125 41.1328125 C-4.51375 41.08125 -5.215 41.0296875 -5.9375 40.9765625 C-11.31621641 40.58106865 -11.31621641 40.58106865 -13.75 38.3828125 C-15.97207316 33.6772458 -15.91350967 29.28430587 -15.8125 24.1328125 C-15.565 24.7515625 -15.3175 25.3703125 -15.0625 26.0078125 C-13.60621361 28.48349937 -12.43437494 29.08406252 -9.8125 30.1328125 C-10.1425 31.0815625 -10.4725 32.0303125 -10.8125 33.0078125 C-11.91409191 35.90343702 -11.91409191 35.90343702 -11.8125 38.1328125 C-7.8525 38.1328125 -3.8925 38.1328125 0.1875 38.1328125 C0.1875 38.7928125 0.1875 39.4528125 0.1875 40.1328125 C1.8375 40.1328125 3.4875 40.1328125 5.1875 40.1328125 C5.1875 27.5928125 5.1875 15.0528125 5.1875 2.1328125 C3.2075 2.1328125 1.2275 2.1328125 -0.8125 2.1328125 C-0.8125 6.0928125 -0.8125 10.0528125 -0.8125 14.1328125 C-1.8025 14.1328125 -2.7925 14.1328125 -3.8125 14.1328125 C-3.67220581 11.9866099 -3.52511836 9.84085032 -3.375 7.6953125 C-3.29378906 6.50035156 -3.21257812 5.30539063 -3.12890625 4.07421875 C-2.71202054 0.19872564 -2.71202054 0.19872564 0 0 Z M-6.8125 27.1328125 C-4.6875 28.0703125 -4.6875 28.0703125 -2.8125 29.1328125 C-4.1325 29.4628125 -5.4525 29.7928125 -6.8125 30.1328125 C-6.8125 31.7828125 -6.8125 33.4328125 -6.8125 35.1328125 C-5.4925 35.1328125 -4.1725 35.1328125 -2.8125 35.1328125 C-2.8125 33.4828125 -2.8125 31.8328125 -2.8125 30.1328125 C-2.4825 30.1328125 -2.1525 30.1328125 -1.8125 30.1328125 C-1.76995644 32.13235996 -1.77169217 34.13322886 -1.8125 36.1328125 C-2.8125 37.1328125 -2.8125 37.1328125 -5.875 37.1953125 C-6.844375 37.1746875 -7.81375 37.1540625 -8.8125 37.1328125 C-8.8125 34.1328125 -8.8125 31.1328125 -8.8125 28.1328125 C-8.1525 27.8028125 -7.4925 27.4728125 -6.8125 27.1328125 Z " fill="#5E4C7D" transform="translate(261.8125,110.8671875)"/>
<path d="M0 0 C19.06417291 0.04073541 19.06417291 0.04073541 21.15625 2.1328125 C22.31892301 8.07536342 22.51173556 14.08955806 22.15625 20.1328125 C21.15625 21.1328125 21.15625 21.1328125 19.30859375 21.23046875 C17.2578125 21.19791667 15.20703125 21.16536458 13.15625 21.1328125 C13.16785156 22.13183594 13.17945312 23.13085938 13.19140625 24.16015625 C13.20042969 25.45050781 13.20945312 26.74085938 13.21875 28.0703125 C13.23035156 29.35808594 13.24195312 30.64585937 13.25390625 31.97265625 C13.15625 35.1328125 13.15625 35.1328125 12.15625 36.1328125 C10.15666636 36.17362033 8.15579746 36.17535606 6.15625 36.1328125 C4.25016902 32.92099101 3.93358753 30.59398647 4.03125 26.8828125 C4.04929687 25.99078125 4.06734375 25.09875 4.0859375 24.1796875 C4.12074219 23.16648438 4.12074219 23.16648438 4.15625 22.1328125 C1.84625 22.1328125 -0.46375 22.1328125 -2.84375 22.1328125 C-4.00956918 19.80117414 -3.97280609 18.41127768 -3.9765625 15.81640625 C-3.97785156 14.97013672 -3.97914062 14.12386719 -3.98046875 13.25195312 C-3.97660156 12.36701172 -3.97273438 11.48207031 -3.96875 10.5703125 C-3.97261719 9.68150391 -3.97648437 8.79269531 -3.98046875 7.87695312 C-3.97917969 7.03197266 -3.97789063 6.18699219 -3.9765625 5.31640625 C-3.97543457 4.53837646 -3.97430664 3.76034668 -3.97314453 2.95874023 C-3.75596388 -0.10596554 -3.10529987 0.14502774 0 0 Z M-1.84375 2.1328125 C-1.84375 8.0728125 -1.84375 14.0128125 -1.84375 20.1328125 C0.46625 20.4628125 2.77625 20.7928125 5.15625 21.1328125 C5.48625 25.4228125 5.81625 29.7128125 6.15625 34.1328125 C8.13625 34.1328125 10.11625 34.1328125 12.15625 34.1328125 C12.15625 29.5128125 12.15625 24.8928125 12.15625 20.1328125 C16.11625 19.6378125 16.11625 19.6378125 20.15625 19.1328125 C20.15625 13.8528125 20.15625 8.5728125 20.15625 3.1328125 C12.77319543 2.13172036 5.60820235 2.0543709 -1.84375 2.1328125 Z " fill="#594776" transform="translate(34.84375,115.8671875)"/>
<path d="M0 0 C3 0.125 3 0.125 4 1.125 C4.07271741 3.47813555 4.08370868 5.83333668 4.0625 8.1875 C4.05347656 9.47785156 4.04445313 10.76820312 4.03515625 12.09765625 C4.02355469 13.09667969 4.01195313 14.09570312 4 15.125 C3.34 14.795 2.68 14.465 2 14.125 C2 11.155 2 8.185 2 5.125 C1.01 6.61 1.01 6.61 0 8.125 C-0.66 8.125 -1.32 8.125 -2 8.125 C-2 18.025 -2 27.925 -2 38.125 C-1.01 38.125 -0.02 38.125 1 38.125 C0.95875 36.8875 0.9175 35.65 0.875 34.375 C0.7638784 31.04135209 1.34123921 29.0245661 3 26.125 C3.02685938 28.27076637 3.04633088 30.41662645 3.0625 32.5625 C3.07410156 33.75746094 3.08570312 34.95242187 3.09765625 36.18359375 C3 39.125 3 39.125 2 40.125 C-0.5 40.25 -0.5 40.25 -3 40.125 C-4.84276509 38.28223491 -4.12874411 35.69536241 -4.13894653 33.24365234 C-4.1369223 32.42074707 -4.13489807 31.5978418 -4.1328125 30.75 C-4.13376923 29.91033691 -4.13472595 29.07067383 -4.13571167 28.20556641 C-4.13639348 26.42675705 -4.13453917 24.64794523 -4.13037109 22.86914062 C-4.12502283 20.13666224 -4.13031605 17.40434824 -4.13671875 14.671875 C-4.13605797 12.9479163 -4.13477681 11.22395771 -4.1328125 9.5 C-4.13483673 8.67709473 -4.13686096 7.85418945 -4.13894653 7.00634766 C-4.1105034 0.17127097 -4.1105034 0.17127097 0 0 Z " fill="#5B497A" transform="translate(63,112.875)"/>
<path d="M0 0 C1.58206057 0.00667536 3.16410534 0.0186375 4.74609375 0.03515625 C5.55240234 0.03966797 6.35871094 0.04417969 7.18945312 0.04882812 C9.18753131 0.06065107 11.18557158 0.07858711 13.18359375 0.09765625 C13.18359375 0.75765625 13.18359375 1.41765625 13.18359375 2.09765625 C7.57359375 2.09765625 1.96359375 2.09765625 -3.81640625 2.09765625 C-3.48640625 12.32765625 -3.15640625 22.55765625 -2.81640625 33.09765625 C3.78359375 33.09765625 10.38359375 33.09765625 17.18359375 33.09765625 C17.47234375 31.32390625 17.76109375 29.55015625 18.05859375 27.72265625 C18.93359375 22.34765625 18.93359375 22.34765625 21.18359375 20.09765625 C21.50284302 26.16339243 20.72509569 29.59440403 18.18359375 35.09765625 C14.53777688 35.12653137 10.89198912 35.1444121 7.24609375 35.16015625 C5.6847168 35.17272461 5.6847168 35.17272461 4.09179688 35.18554688 C3.10244141 35.18876953 2.11308594 35.19199219 1.09375 35.1953125 C-0.28091431 35.20316772 -0.28091431 35.20316772 -1.68334961 35.21118164 C-3.81640625 35.09765625 -3.81640625 35.09765625 -4.81640625 34.09765625 C-4.91723389 31.66105179 -4.95613228 29.25340924 -4.94921875 26.81640625 C-4.95017548 26.08772339 -4.9511322 25.35904053 -4.95211792 24.60827637 C-4.9527996 23.06485915 -4.95094613 21.52143908 -4.94677734 19.97802734 C-4.94142887 17.60768225 -4.94672267 15.23752666 -4.953125 12.8671875 C-4.95246422 11.37109333 -4.95118305 9.87499928 -4.94921875 8.37890625 C-4.95124298 7.66536987 -4.95326721 6.9518335 -4.95535278 6.2166748 C-4.9261481 0.12605292 -4.9261481 0.12605292 0 0 Z " fill="#5A4A75" transform="translate(153.81640625,116.90234375)"/>
<path d="M0 0 C3.5625 0.125 3.5625 0.125 5.5625 1.125 C7.56210012 1.164992 9.56297242 1.16846799 11.5625 1.125 C13.31997614 5.62853262 13.75544408 9.30139811 13.5625 14.125 C10.9225 14.125 8.2825 14.125 5.5625 14.125 C4.9025 19.075 4.2425 24.025 3.5625 29.125 C1.2525 29.125 -1.0575 29.125 -3.4375 29.125 C-5.24029191 27.32220809 -4.56786605 24.58452299 -4.5703125 22.15625 C-4.57160156 20.94582031 -4.57289063 19.73539063 -4.57421875 18.48828125 C-4.57035156 17.21339844 -4.56648437 15.93851563 -4.5625 14.625 C-4.56636719 13.35011719 -4.57023438 12.07523438 -4.57421875 10.76171875 C-4.57292969 9.55128906 -4.57164062 8.34085938 -4.5703125 7.09375 C-4.56918457 5.97419922 -4.56805664 4.85464844 -4.56689453 3.70117188 C-4.36921502 -0.23451526 -4.0671516 0.14789642 0 0 Z M-3.4375 2.125 C-3.46636984 6.10415159 -3.48425406 10.08327653 -3.5 14.0625 C-3.50837891 15.19880859 -3.51675781 16.33511719 -3.52539062 17.50585938 C-3.52861328 18.58544922 -3.53183594 19.66503906 -3.53515625 20.77734375 C-3.54039307 21.77757568 -3.54562988 22.77780762 -3.55102539 23.80834961 C-3.69931095 26.08707228 -3.69931095 26.08707228 -2.4375 27.125 C-0.7875 27.125 0.8625 27.125 2.5625 27.125 C2.8925 22.175 3.2225 17.225 3.5625 12.125 C6.2025 12.455 8.8425 12.785 11.5625 13.125 C12.39757667 10.20223164 12.61700569 8.36482504 11.9375 5.375 C10.75200265 2.88699754 10.75200265 2.88699754 8.0625 2.3125 C5.64793713 2.10007002 5.64793713 2.10007002 3.5625 2.125 C1.22916667 2.125 -1.10416667 2.125 -3.4375 2.125 Z " fill="#5A4A73" transform="translate(229.4375,123.875)"/>
<path d="M0 0 C2.625 -0.1875 2.625 -0.1875 5 0 C6.03590199 5.05002222 6.10251672 9.87416389 6 15 C7.98 15 9.96 15 12 15 C11.67 11.04 11.34 7.08 11 3 C11.99 3 12.98 3 14 3 C13.67 7.62 13.34 12.24 13 17 C10.36 16.67 7.72 16.34 5 16 C4.34 11.38 3.68 6.76 3 2 C0.22957891 4.77042109 0.60203894 6.76533805 0.375 10.625 C0.30023438 11.81351563 0.22546875 13.00203125 0.1484375 14.2265625 C0.09945312 15.14179688 0.05046875 16.05703125 0 17 C-1.65 17 -3.3 17 -5 17 C-5.66 15.68 -6.32 14.36 -7 13 C-4.525 13.99 -4.525 13.99 -2 15 C-2.02320312 14.16855469 -2.04640625 13.33710938 -2.0703125 12.48046875 C-2.08835937 11.39378906 -2.10640625 10.30710938 -2.125 9.1875 C-2.14820312 8.10855469 -2.17140625 7.02960938 -2.1953125 5.91796875 C-2 3 -2 3 0 0 Z " fill="#53466D" transform="translate(103,136)"/>
<path d="M0 0 C0.99 0 1.98 0 3 0 C3 0.66 3 1.32 3 2 C2.01 2.495 2.01 2.495 1 3 C1 10.59 1 18.18 1 26 C2.65 26.33 4.3 26.66 6 27 C5.96447021 26.41508789 5.92894043 25.83017578 5.89233398 25.22753906 C5.7343957 22.56869151 5.58585489 19.90939877 5.4375 17.25 C5.38142578 16.32960937 5.32535156 15.40921875 5.26757812 14.4609375 C5.21923828 13.57148438 5.17089844 12.68203125 5.12109375 11.765625 C5.0739624 10.94868164 5.02683105 10.13173828 4.97827148 9.29003906 C4.99979905 7.02117925 5.35387865 5.16679079 6 3 C5.34 3 4.68 3 4 3 C4 2.34 4 1.68 4 1 C5.32 1.33 6.64 1.66 8 2 C7.67 10.91 7.34 19.82 7 29 C4.69 29 2.38 29 0 29 C-1.80279191 27.19720809 -1.13036605 24.45952299 -1.1328125 22.03125 C-1.13410156 20.82082031 -1.13539062 19.61039063 -1.13671875 18.36328125 C-1.13285156 17.08839844 -1.12898438 15.81351563 -1.125 14.5 C-1.12886719 13.22511719 -1.13273437 11.95023438 -1.13671875 10.63671875 C-1.13542969 9.42628906 -1.13414063 8.21585938 -1.1328125 6.96875 C-1.13168457 5.84919922 -1.13055664 4.72964844 -1.12939453 3.57617188 C-1 1 -1 1 0 0 Z " fill="#5A4876" transform="translate(85,124)"/>
<path d="M0 0 C0 0.66 0 1.32 0 2 C-1.98 2.66 -3.96 3.32 -6 4 C-6 4.99 -6 5.98 -6 7 C-5.34 7.33 -4.68 7.66 -4 8 C-4 9.32 -4 10.64 -4 12 C-1.10067643 9.60490662 -0.49831724 7.68754757 0 4 C0.33 5.32 0.66 6.64 1 8 C1.66 8 2.32 8 3 8 C2.67 7.01 2.34 6.02 2 5 C2.99 5 3.98 5 5 5 C4.34 6.98 3.68 8.96 3 11 C6.465 12.485 6.465 12.485 10 14 C9.67 13.01 9.34 12.02 9 11 C9.99 11.33 10.98 11.66 12 12 C11.67 13.32 11.34 14.64 11 16 C7.24100486 15.40647445 3.49261909 14.75135888 -0.25 14.0625 C-1.10078125 13.90910156 -1.9515625 13.75570312 -2.828125 13.59765625 C-5 13 -5 13 -7 11 C-7.56520003 8.34462628 -7.73788198 5.70855287 -8 3 C-3.375 0 -3.375 0 0 0 Z " fill="#58457B" transform="translate(208,140)"/>
<path d="M0 0 C3.5625 0.125 3.5625 0.125 5.5625 1.125 C6.8825 1.125 8.2025 1.125 9.5625 1.125 C13.5625 1.125 13.5625 1.125 15.5625 2.125 C15.5625 6.085 15.5625 10.045 15.5625 14.125 C15.2325 14.125 14.9025 14.125 14.5625 14.125 C13.9025 10.825 13.2425 7.525 12.5625 4.125 C10.396875 4.186875 10.396875 4.186875 8.1875 4.25 C5.7265625 4.3203125 5.7265625 4.3203125 3.5625 4.125 C2.9025 3.465 2.2425 2.805 1.5625 2.125 C0.2425 2.125 -1.0775 2.125 -2.4375 2.125 C-2.42702637 2.72038574 -2.41655273 3.31577148 -2.40576172 3.92919922 C-2.36426051 6.61942343 -2.33819296 9.30958037 -2.3125 12 C-2.28736328 13.40572266 -2.28736328 13.40572266 -2.26171875 14.83984375 C-2.25527344 15.73574219 -2.24882813 16.63164062 -2.2421875 17.5546875 C-2.23171387 18.38210449 -2.22124023 19.20952148 -2.21044922 20.06201172 C-2.4375 22.125 -2.4375 22.125 -4.4375 24.125 C-4.46637236 20.31251574 -4.48425492 16.5000593 -4.5 12.6875 C-4.50837891 11.59888672 -4.51675781 10.51027344 -4.52539062 9.38867188 C-4.52861328 8.35419922 -4.53183594 7.31972656 -4.53515625 6.25390625 C-4.54039307 5.29556885 -4.54562988 4.33723145 -4.55102539 3.34985352 C-4.36427166 -0.31011794 -3.79577226 0.13802808 0 0 Z " fill="#5F4A7D" transform="translate(100.4375,123.875)"/>
<path d="M0 0 C3.04822999 3.04822999 2.29337257 6.08805307 2.32226562 10.25390625 C2.31904297 11.32511719 2.31582031 12.39632812 2.3125 13.5 C2.32861328 14.57121094 2.34472656 15.64242187 2.36132812 16.74609375 C2.36197266 17.76832031 2.36261719 18.79054688 2.36328125 19.84375 C2.36775269 21.25430664 2.36775269 21.25430664 2.37231445 22.69335938 C2.1880188 23.83514648 2.1880188 23.83514648 2 25 C1.01 25.66 0.02 26.32 -1 27 C-1 27.66 -1 28.32 -1 29 C-0.01 29.33 0.98 29.66 2 30 C-0.31 29.67 -2.62 29.34 -5 29 C-4.67 25.7 -4.34 22.4 -4 19 C-1 20 -1 20 0 21 C0 14.07 0 7.14 0 0 Z " fill="#44375E" transform="translate(135,64)"/>
<path d="M0 0 C2.31 0.66 4.62 1.32 7 2 C7.58106169 19.73314204 7.58106169 19.73314204 4 26 C0.3719031 27.29950469 -3.17756966 27.27799493 -7 27 C-7.99 26.01 -8.98 25.02 -10 24 C-6.37 24 -2.74 24 1 24 C1 23.34 1 22.68 1 22 C1.99 21.34 2.98 20.68 4 20 C5.23499448 14.13377624 4.88713698 8.89604886 4 3 C2.68 2.67 1.36 2.34 0 2 C0 1.34 0 0.68 0 0 Z " fill="#5D4C7A" transform="translate(190,125)"/>
<path d="M0 0 C0.99 0 1.98 0 3 0 C3.33 0.66 3.66 1.32 4 2 C4.99 2.33 5.98 2.66 7 3 C6.67 3.66 6.34 4.32 6 5 C6.58282458 7.16659218 6.58282458 7.16659218 7.5 9.5 C8.40625 11.90625 8.40625 11.90625 9 14 C8.67 14.66 8.34 15.32 8 16 C7.34 16 6.68 16 6 16 C5.35242375 14.56328432 4.70700547 13.12559584 4.0625 11.6875 C3.70285156 10.88699219 3.34320313 10.08648437 2.97265625 9.26171875 C2 7 2 7 1 4 C-4.28 3.67 -9.56 3.34 -15 3 C-15 2.67 -15 2.34 -15 2 C-10.05 1.67 -5.1 1.34 0 1 C0 0.67 0 0.34 0 0 Z " fill="#5D4980" transform="translate(163,90)"/>
<path d="M0 0 C2.64 0 5.28 0 8 0 C8 0.33 8 0.66 8 1 C13.445 1.495 13.445 1.495 19 2 C17 4 17 4 14.29443359 4.22705078 C13.17375488 4.21657715 12.05307617 4.20610352 10.8984375 4.1953125 C9.08085937 4.18564453 9.08085937 4.18564453 7.2265625 4.17578125 C5.95554688 4.15902344 4.68453125 4.14226562 3.375 4.125 C2.09625 4.11597656 0.8175 4.10695313 -0.5 4.09765625 C-3.66685167 4.07402303 -6.83333424 4.04107629 -10 4 C-9.67 3.34 -9.34 2.68 -9 2 C-6.03 2 -3.06 2 0 2 C0 1.34 0 0.68 0 0 Z " fill="#695489" transform="translate(152,60)"/>
<path d="M0 0 C0.33 0 0.66 0 1 0 C1.33 9.57 1.66 19.14 2 29 C0.02 29.33 -1.96 29.66 -4 30 C-4 29.34 -4 28.68 -4 28 C-3.01 27.67 -2.02 27.34 -1 27 C-1 24.69 -1 22.38 -1 20 C-1.66 21.32 -2.32 22.64 -3 24 C-3.33 24 -3.66 24 -4 24 C-4 18.72 -4 13.44 -4 8 C-3.67 8 -3.34 8 -3 8 C-2.67 11.3 -2.34 14.6 -2 18 C-1.67 18 -1.34 18 -1 18 C-0.505 9.09 -0.505 9.09 0 0 Z " fill="#543D63" transform="translate(175,64)"/>
<path d="M0 0 C1.32 0 2.64 0 4 0 C3.67 0.66 3.34 1.32 3 2 C2.01 2 1.02 2 0 2 C0.1181656 6.09362106 0.24240784 10.18700767 0.37231445 14.28027344 C0.41565846 15.6731259 0.45733396 17.06603131 0.49731445 18.45898438 C0.55502932 20.45976651 0.61921869 22.46035859 0.68359375 24.4609375 C0.72025146 25.66540527 0.75690918 26.86987305 0.79467773 28.11083984 C0.81052987 30.93996367 0.81052987 30.93996367 2 33 C2.66 31.35 3.32 29.7 4 28 C4.99 28.33 5.98 28.66 7 29 C6.34 30.98 5.68 32.96 5 35 C3.33388095 35.042721 1.66617115 35.04063832 0 35 C-1.70492881 33.29507119 -1.1280442 31.15465739 -1.13894653 28.88098145 C-1.1369223 28.16744507 -1.13489807 27.45390869 -1.1328125 26.71875 C-1.13376923 25.99006714 -1.13472595 25.26138428 -1.13571167 24.51062012 C-1.13639335 22.9672029 -1.13453988 21.42378283 -1.13037109 19.88037109 C-1.12502262 17.510026 -1.13031642 15.13987041 -1.13671875 12.76953125 C-1.13605797 11.27343708 -1.1347768 9.77734303 -1.1328125 8.28125 C-1.13483673 7.56771362 -1.13686096 6.85417725 -1.13894653 6.11901855 C-1.11495191 1.11495191 -1.11495191 1.11495191 0 0 Z " fill="#5A4975" transform="translate(121,117)"/>
<path d="M0 0 C3.63 0 7.26 0 11 0 C11 0.66 11 1.32 11 2 C9.02 2 7.04 2 5 2 C5 3.98 5 5.96 5 8 C6.98 8 8.96 8 11 8 C11.33 7.34 11.66 6.68 12 6 C12.33 6.99 12.66 7.98 13 9 C9.67339034 10.10886989 7.48117973 10.43514747 4 10 C1.24345067 6.67313012 0.86984733 4.34923663 0 0 Z " fill="#5E477A" transform="translate(152,134)"/>
<path d="M0 0 C0.721875 0.00257812 1.44375 0.00515625 2.1875 0.0078125 C2.909375 0.00523438 3.63125 0.00265625 4.375 0 C6.1875 0.1328125 6.1875 0.1328125 7.1875 1.1328125 C7.26069621 3.82936104 7.27992537 6.49972708 7.25 9.1953125 C7.24548828 9.95392578 7.24097656 10.71253906 7.23632812 11.49414062 C7.2245068 13.37373121 7.20657078 15.25328149 7.1875 17.1328125 C6.8575 17.1328125 6.5275 17.1328125 6.1875 17.1328125 C6.1875 12.1828125 6.1875 7.2328125 6.1875 2.1328125 C3.8775 2.1328125 1.5675 2.1328125 -0.8125 2.1328125 C-0.8125 6.0928125 -0.8125 10.0528125 -0.8125 14.1328125 C-1.8025 14.1328125 -2.7925 14.1328125 -3.8125 14.1328125 C-3.67220581 11.9866099 -3.52511836 9.84085032 -3.375 7.6953125 C-3.29378906 6.50035156 -3.21257812 5.30539063 -3.12890625 4.07421875 C-2.71202054 0.19872564 -2.71202054 0.19872564 0 0 Z " fill="#58496E" transform="translate(261.8125,110.8671875)"/>
<path d="M0 0 C0.99 0.103125 1.98 0.20625 3 0.3125 C3.66 1.3025 4.32 2.2925 5 3.3125 C3.25 5.375 3.25 5.375 1 7.3125 C-1.125 7.3125 -1.125 7.3125 -3 6.3125 C-4.25 4.25 -4.25 4.25 -5 2.3125 C-3 0.3125 -3 0.3125 0 0 Z " fill="#52416F" transform="translate(88,115.6875)"/>
<path d="M0 0 C0.66 0.33 1.32 0.66 2 1 C1.67 1.99 1.34 2.98 1 4 C0.77548542 6.22574335 0.59217122 8.45581519 0.4375 10.6875 C0.35371094 11.86699219 0.26992187 13.04648438 0.18359375 14.26171875 C0.12300781 15.16535156 0.06242187 16.06898438 0 17 C-1.65 17 -3.3 17 -5 17 C-5.66 15.68 -6.32 14.36 -7 13 C-4.525 13.99 -4.525 13.99 -2 15 C-2.02320312 14.16855469 -2.04640625 13.33710938 -2.0703125 12.48046875 C-2.08835937 11.39378906 -2.10640625 10.30710938 -2.125 9.1875 C-2.14820312 8.10855469 -2.17140625 7.02960938 -2.1953125 5.91796875 C-2 3 -2 3 0 0 Z " fill="#5B497A" transform="translate(103,136)"/>
<path d="M0 0 C4.62 0 9.24 0 14 0 C11 3 11 3 8.08203125 3.07421875 C7.00308594 2.94660156 5.92414063 2.81898437 4.8125 2.6875 C3.72582031 2.56761719 2.63914063 2.44773438 1.51953125 2.32421875 C0.68808594 2.21722656 -0.14335937 2.11023437 -1 2 C-0.67 1.34 -0.34 0.68 0 0 Z M9 3 C11 4 11 4 11 4 Z " fill="#524268" transform="translate(160,60)"/>
<path d="M0 0 C0 0.66 0 1.32 0 2 C1.98 2 3.96 2 6 2 C5.67 2.66 5.34 3.32 5 4 C2.72858891 3.88597936 0.45785448 3.75841495 -1.8125 3.625 C-3.07707031 3.55539063 -4.34164063 3.48578125 -5.64453125 3.4140625 C-9 3 -9 3 -12 1 C-7.915021 0.45533613 -4.1274515 0 0 0 Z " fill="#55486E" transform="translate(262,149)"/>
<path d="M0 0 C2.6875 -0.3125 2.6875 -0.3125 5 0 C5.66 1.32 6.32 2.64 7 4 C6.34 4.66 5.68 5.32 5 6 C5 5.01 5 4.02 5 3 C3.35 3 1.7 3 0 3 C-0.33 4.32 -0.66 5.64 -1 7 C-1.66 6.34 -2.32 5.68 -3 5 C-1.8125 2.5 -1.8125 2.5 0 0 Z " fill="#5F4C77" transform="translate(156,122)"/>
<path d="M0 0 C-0.33 0.99 -0.66 1.98 -1 3 C-4.48942336 4.4762945 -8.28059272 4.27050235 -12 4 C-13.71484375 2.484375 -13.71484375 2.484375 -15 1 C-13.84371094 1.01740234 -13.84371094 1.01740234 -12.6640625 1.03515625 C-11.15972656 1.04869141 -11.15972656 1.04869141 -9.625 1.0625 C-8.12839844 1.07990234 -8.12839844 1.07990234 -6.6015625 1.09765625 C-4.04433149 1.00166409 -2.49131904 0 0 0 Z " fill="#584570" transform="translate(195,148)"/>
<path d="M0 0 C1.65 0 3.3 0 5 0 C5.33 0.66 5.66 1.32 6 2 C5.0625 4.625 5.0625 4.625 4 7 C2.35 6.67 0.7 6.34 -1 6 C-1 4.68 -1 3.36 -1 2 C-0.67 2.99 -0.34 3.98 0 5 C0.99 4.67 1.98 4.34 3 4 C3.33 3.34 3.66 2.68 4 2 C2.68 1.67 1.36 1.34 0 1 C0 0.67 0 0.34 0 0 Z " fill="#5E4A7A" transform="translate(184,136)"/>
<path d="M0 0 C0 0.66 0 1.32 0 2 C-0.66 2 -1.32 2 -2 2 C-2 2.66 -2 3.32 -2 4 C-0.68 4.33 0.64 4.66 2 5 C1.67 5.99 1.34 6.98 1 8 C0.34 7.34 -0.32 6.68 -1 6 C-3.57061311 5.35232207 -3.57061311 5.35232207 -6 5 C-6 3.68 -6 2.36 -6 1 C-3.92446352 0.4465236 -2.15634036 0 0 0 Z " fill="#604C7B" transform="translate(172,129)"/>
<path d="M0 0 C0.99 0.66 1.98 1.32 3 2 C3 2.99 3 3.98 3 5 C1.35 5.66 -0.3 6.32 -2 7 C-3.32 5.35 -4.64 3.7 -6 2 C-3.525 2.99 -3.525 2.99 -1 4 C-0.67 2.68 -0.34 1.36 0 0 Z " fill="#5C4875" transform="translate(135,146)"/>
<path d="M0 0 C2.97 0 5.94 0 9 0 C9.66 1.32 10.32 2.64 11 4 C3.57142857 3 3.57142857 3 0 2 C0 1.34 0 0.68 0 0 Z " fill="#4F4166" transform="translate(69,127)"/>
<path d="M0 0 C0.78375 0.04125 1.5675 0.0825 2.375 0.125 C3.035 1.775 3.695 3.425 4.375 5.125 C1.405 4.135 -1.565 3.145 -4.625 2.125 C-2.625 0.125 -2.625 0.125 0 0 Z " fill="#674E8F" transform="translate(213.625,148.875)"/>
<path d="M0 0 C2.76223278 2.76223278 2.57856291 5.20706617 3 9 C1.02 9.33 -0.96 9.66 -3 10 C-3 9.34 -3 8.68 -3 8 C-2.01 7.67 -1.02 7.34 0 7 C0 4.69 0 2.38 0 0 Z " fill="#47345A" transform="translate(174,84)"/>
<path d="M0 0 C0.99 0.33 1.98 0.66 3 1 C2.67 2.65 2.34 4.3 2 6 C0.68 5.67 -0.64 5.34 -2 5 C-1.34 3.35 -0.68 1.7 0 0 Z " fill="#69518B" transform="translate(135,126)"/>
<path d="M0 0 C1.22589844 0.01353516 1.22589844 0.01353516 2.4765625 0.02734375 C3.41628906 0.04474609 3.41628906 0.04474609 4.375 0.0625 C4.375 0.3925 4.375 0.7225 4.375 1.0625 C3.43527344 1.36994141 3.43527344 1.36994141 2.4765625 1.68359375 C1.65929687 1.95300781 0.84203125 2.22242187 0 2.5 C-0.81210938 2.76683594 -1.62421875 3.03367187 -2.4609375 3.30859375 C-4.63531799 4.01429729 -4.63531799 4.01429729 -6.625 5.0625 C-6.625 3.7425 -6.625 2.4225 -6.625 1.0625 C-4.21954362 -0.14022819 -2.67503047 -0.03821472 0 0 Z " fill="#5B4C72" transform="translate(184.625,124.9375)"/>
<path d="M0 0 C0 1.32 0 2.64 0 4 C-1.65 4.33 -3.3 4.66 -5 5 C-5 3.68 -5 2.36 -5 1 C-2 0 -2 0 0 0 Z " fill="#604D85" transform="translate(91,116)"/>
<path d="M0 0 C0.99 0 1.98 0 3 0 C2.67 3.96 2.34 7.92 2 12 C1.67 12 1.34 12 1 12 C0.67 8.04 0.34 4.08 0 0 Z " fill="#5A4B76" transform="translate(114,139)"/>
<path d="M0 0 C1.67542976 0.28604898 3.34385343 0.61781233 5 1 C3.3545622 2.68762851 1.68711423 4.3540349 0 6 C-0.33 6 -0.66 6 -1 6 C-1.042721 4.33388095 -1.04063832 2.66617115 -1 1 C-0.67 0.67 -0.34 0.34 0 0 Z " fill="#645181" transform="translate(202,124)"/>
</svg>
